<svg width="1483" height="457" viewBox="0 0 1483 457" fill="none" xmlns="http://www.w3.org/2000/svg">
<path d="M5 7C73.1637 31.6805 109.775 50.3754 173 90C228.572 103.866 261.123 102.119 320.5 90C368.456 72.1105 389.928 76.3293 420 105.5C491.424 182.752 538.201 189.24 628 166C635.987 169.141 652.894 153.367 671 136.004C688.875 118.407 702.064 106.341 711.987 100.641C722.912 94.0173 731.359 93.5195 734.5 105.5C745.46 147.309 881.965 306.043 1034.5 356C1202.62 417.04 1301.46 435.612 1482.5 452.5H936.5H5V7Z" fill="#1A222D"/>
<path d="M734.5 105.5C745.46 147.309 881.965 306.043 1034.5 356M734.5 105.5C727.928 80.4303 698.118 110 671 136.004M734.5 105.5C725.089 86.7312 708.183 99.3981 671 136.004M1034.5 356C1209.09 420.648 1307.25 436.951 1482.5 452.5M1034.5 356C1202.62 417.04 1301.46 435.612 1482.5 452.5M1482.5 452.5H936.5M671 136.004C652.894 153.367 635.987 169.141 628 166C538.201 189.24 491.424 182.752 420 105.5C389.928 76.3293 368.456 72.1105 320.5 90C261.123 102.119 228.572 103.866 173 90C109.775 50.3754 73.1637 31.6805 5 7V452.5H936.5M671 136.004C645.811 174.984 640.27 197.739 651 240.5C724.018 369.601 797.649 402.635 936.5 452.5" stroke="#1A222D" stroke-width="9"/>
</svg>
